<svg height="95" viewBox="145 347 93 95" width="93" xmlns="http://www.w3.org/2000/svg"><path d="m191.5 405.5c-14.6 7.4-32 7.1-46.5-1.1 1.1 5 2.9 9.7 5.4 13.9 3.5 6 10.6 9.1 17.3 7.5 3.2-.7 6.3-2 9.3-3.7 6.6-3.8 11.7-9.6 14.5-16.6z"/><path d="m206.2 349.3c-4.6-1.5-9.6-2.3-14.7-2.3h-.1c-7 0-13.1 4.6-15.2 11.2-.9 3.1-1.5 6.4-1.5 9.9 0 7.7 2.6 15 7.2 20.9.9-16.3 9.9-31.2 24.3-39.7z"/><path d="m176.8 439.7c4.6 1.5 9.6 2.3 14.7 2.3h.1c7 0 13.1-4.6 15.2-11.2.9-3.1 1.5-6.4 1.5-9.9 0-7.7-2.6-15-7.2-20.9-.9 16.3-9.9 31.2-24.3 39.7z"/><path d="m222.8 393.2c-6.7-3.8-14.3-5.3-21.7-4.2 13.7 8.9 22.2 24.1 22.3 40.8 3.7-3.3 6.9-7.2 9.4-11.5 3.5-6 2.7-13.7-2.1-18.8-2.3-2.5-4.9-4.6-7.9-6.3z"/><path d="m191.5 383.5c14.6-7.4 32-7.1 46.5 1.1-1.1-5-2.9-9.7-5.4-13.9-3.5-6-10.6-9.1-17.3-7.5-3.2.7-6.3 2-9.3 3.7-6.6 3.8-11.7 9.6-14.5 16.6z"/><path d="m160.2 395.8c6.7 3.8 14.3 5.3 21.7 4.2-13.7-8.9-22.2-24.1-22.3-40.8-3.7 3.3-6.9 7.2-9.4 11.6-3.5 6-2.7 13.7 2.1 18.8 2.3 2.4 4.9 4.5 7.9 6.2z"/><circle cx="191.5" cy="394.5" r="6.7"/></svg>